<svg width="480" height="540" viewBox="0 0 480 540" fill="none" xmlns="http://www.w3.org/2000/svg">
<path fill-rule="evenodd" clip-rule="evenodd" d="M289.333 377.044C189.24 351.456 63.8688 392.864 -7.99386 327.69C-79.3194 263.003 -19.1996 170.817 -27.9721 89.2733C-36.4945 10.0534 -95.4433 -73.5611 -58.5992 -142.709C-20.0487 -215.06 71.3152 -259.689 167.834 -278.211C260.612 -296.015 362.383 -274.269 456.967 -241.647C545.001 -211.285 636.372 -169.228 682.337 -100.76C725.338 -36.707 671.746 31.9329 687.177 101.268C704.709 180.038 801.658 254.328 777.708 327.748C752.708 404.385 664.421 464.312 565.493 474.298C469.666 483.971 386.424 401.865 289.333 377.044Z" fill="#E4F5FB"/>
</svg>
